<svg xmlns="http://www.w3.org/2000/svg" width="361.43" height="253.32" viewBox="0 0 361.43 253.32">
  <g id="Grupo_1020" data-name="Grupo 1020" transform="translate(-774.219 -221)">
    <path id="Caminho_956" data-name="Caminho 956" d="M44.406,133.257c6.77-75.865,15.278-98.687,51.046-107.02S218.183-21.628,286.424,15.924,428.3,87.155,399.06,147.116s-34,79.977-110.24,76.909C212.611,220.979,37.636,209.122,44.406,133.257Z" transform="translate(730.004 249.995)" fill="#f0f9fc"/>
    <g id="Grupo_1018" data-name="Grupo 1018" transform="translate(813.5 249.925)">
      <g id="Grupo_1005" data-name="Grupo 1005" transform="translate(225.848 47.974)">
        <g id="Grupo_1004" data-name="Grupo 1004">
          <g id="Grupo_1002" data-name="Grupo 1002">
            <g id="Grupo_995" data-name="Grupo 995" transform="translate(0 11.431)">
              <path id="Caminho_895" data-name="Caminho 895" d="M969.154,393.995s-22.761-7.371-20.981-22.047c.752-6.2,5.262-8.2,3.757-11.868s-9.271-3.642-9.4-11.106,8.03-13.888,10.145-4.828c1.129,4.828.311,7.886,3.163,9.137s9.376-4.361,12.621,1.217S969.154,393.995,969.154,393.995Z" transform="translate(-942.534 -339.703)" fill="#3c8a4d"/>
              <g id="Grupo_994" data-name="Grupo 994" transform="translate(5.328 8.831)">
                <g id="Grupo_991" data-name="Grupo 991">
                  <path id="Caminho_896" data-name="Caminho 896" d="M983.174,415.5a.063.063,0,0,1-.062-.058c-.618-9.661-5.569-19.692-9.611-26.406a103.434,103.434,0,0,0-8.717-12.379.063.063,0,1,1,.1-.081,103.409,103.409,0,0,1,8.729,12.4c4.052,6.726,9.012,16.776,9.63,26.461a.064.064,0,0,1-.058.067Z" transform="translate(-964.769 -376.559)" fill="#0d2b13"/>
                </g>
                <g id="Grupo_992" data-name="Grupo 992" transform="translate(4.759 28.235)">
                  <path id="Caminho_897" data-name="Caminho 897" d="M998.03,502.653a.087.087,0,0,1-.024,0c-.1-.041-9.886-4.177-13.363-8.149a.066.066,0,0,1,0-.089.064.064,0,0,1,.089,0c3.458,3.951,13.22,8.075,13.318,8.118a.062.062,0,0,1-.024.12Z" transform="translate(-984.628 -494.394)" fill="#0d2b13"/>
                </g>
                <g id="Grupo_993" data-name="Grupo 993" transform="translate(9.785 7.19)">
                  <path id="Caminho_898" data-name="Caminho 898" d="M1005.668,413.7a.052.052,0,0,1-.019,0,.061.061,0,0,1-.041-.079l2.142-7.006a.063.063,0,0,1,.12.038l-2.142,7.006A.064.064,0,0,1,1005.668,413.7Z" transform="translate(-1005.605 -406.565)" fill="#0d2b13"/>
                </g>
              </g>
            </g>
            <g id="Grupo_1001" data-name="Grupo 1001" transform="translate(13.274)">
              <path id="Caminho_899" data-name="Caminho 899" d="M1009.209,358.446s-17.722-14.928-8.736-29.413c3.072-4.953,12.7-5.957,13.915-10.809s-11.387-7.275-5.555-16.249c2.442-3.757,7.016.252,9.4-2.379s-1.838-6.64,2.339-7.517,12.988,5.226,1.512,19.292c-3.1,3.8,11.806,10.9,11.432,20.169s-20.442,17.037-19.678,25.68S1009.209,358.446,1009.209,358.446Z" transform="translate(-997.931 -291.996)" fill="#40b258"/>
              <g id="Grupo_1000" data-name="Grupo 1000" transform="translate(9.347 6.16)">
                <g id="Grupo_996" data-name="Grupo 996" transform="translate(2.997)">
                  <path id="Caminho_900" data-name="Caminho 900" d="M1051.012,377.328a.067.067,0,0,1-.058-.036c-.017-.036-1.634-3.6-1.5-10.174.053-2.631,2.454-4.984,5-7.474,3.915-3.836,8.355-8.185,5.42-14.715-2.519-5.6-1.776-12.7-.707-17.665a56.12,56.12,0,0,1,2.948-9.525.064.064,0,0,1,.081-.034.065.065,0,0,1,.034.081,56.354,56.354,0,0,0-2.94,9.5c-1.064,4.946-1.8,12.012.7,17.586,2.971,6.611-1.5,10.991-5.447,14.856-2.523,2.47-4.9,4.807-4.958,7.387-.134,6.549,1.471,10.083,1.488,10.119a.064.064,0,0,1-.031.084A.083.083,0,0,1,1051.012,377.328Z" transform="translate(-1049.447 -317.702)" fill="#020e04"/>
                </g>
                <g id="Grupo_997" data-name="Grupo 997" transform="translate(8.101 9.368)">
                  <path id="Caminho_901" data-name="Caminho 901" d="M1074.485,363.742a.062.062,0,0,1-.05-.026c-.142-.194-3.467-4.749-3.685-6.848a.065.065,0,0,1,.055-.069.064.064,0,0,1,.069.055c.213,2.063,3.628,6.738,3.661,6.786a.062.062,0,0,1-.014.089A.049.049,0,0,1,1074.485,363.742Z" transform="translate(-1070.749 -356.798)" fill="#020e04"/>
                </g>
                <g id="Grupo_998" data-name="Grupo 998" transform="translate(0 36.489)">
                  <path id="Caminho_902" data-name="Caminho 902" d="M1040.01,482.973a.06.06,0,0,1-.053-.029c-.043-.067-4.265-6.781-2.648-12.913a.063.063,0,1,1,.122.031c-1.6,6.079,2.59,12.748,2.633,12.815a.062.062,0,0,1-.019.086A.067.067,0,0,1,1040.01,482.973Z" transform="translate(-1036.94 -469.984)" fill="#020e04"/>
                </g>
                <g id="Grupo_999" data-name="Grupo 999" transform="translate(11.811 33.466)">
                  <path id="Caminho_903" data-name="Caminho 903" d="M1086.292,461.849a.064.064,0,0,1-.06-.046.062.062,0,0,1,.043-.077c.062-.017,6.264-1.737,8.188-4.335a.064.064,0,0,1,.089-.012.062.062,0,0,1,.012.089c-1.95,2.633-8.192,4.363-8.255,4.38Z" transform="translate(-1086.229 -457.367)" fill="#020e04"/>
                </g>
              </g>
            </g>
          </g>
          <g id="Grupo_1003" data-name="Grupo 1003" transform="translate(15.814 63.5)">
            <path id="Caminho_904" data-name="Caminho 904" d="M1028.043,564.107H1010.63l-2.042-5.789a.989.989,0,0,1,.932-1.318h19.627a.989.989,0,0,1,.932,1.318Z" transform="translate(-1008.531 -557)" fill="#ffcc46"/>
            <path id="Caminho_905" data-name="Caminho 905" d="M1034.388,557.01H1032.9a.3.3,0,0,1-.014.048l-2.042,5.789H1015.42l.448,1.27h17.413l2.042-5.789A.99.99,0,0,0,1034.388,557.01Z" transform="translate(-1013.769 -557.008)" fill="#ffa42f"/>
          </g>
        </g>
      </g>
      <g id="Grupo_1007" data-name="Grupo 1007" transform="translate(59.624 82.942)">
        <path id="Caminho_906" data-name="Caminho 906" d="M269.285,442.491c-3.022-.623-6.079-1.169-9.113-1.831l-8.276.208a3.066,3.066,0,0,0-2.705,4.486c6.47,12.077,16.251,32.578,23.073,47.116a68.658,68.658,0,0,0,5.48-21.015C278.8,460.886,274.571,451.16,269.285,442.491Z" transform="translate(-248.828 -440.006)" fill="#e5649a"/>
        <path id="Caminho_907" data-name="Caminho 907" d="M347.187,507.256,321.965,437.93l-25.795.652c3.034.661,6.091,1.208,9.113,1.831,5.286,8.669,9.515,18.4,8.459,28.967a68.662,68.662,0,0,1-5.48,21.015c4.589,9.779,7.838,16.859,7.838,16.859h31.088Z" transform="translate(-284.826 -437.93)" fill="#db4a87"/>
        <rect id="Ret창ngulo_1072" data-name="Ret창ngulo 1072" width="3.479" height="28.045" transform="translate(55.656 120.118) rotate(180)" fill="#db4a87"/>
        <path id="Caminho_908" data-name="Caminho 908" d="M446.007,752.427h10.608a1.8,1.8,0,0,0,1.8-1.8V727.25h-14.2v23.38A1.8,1.8,0,0,0,446.007,752.427Z" transform="translate(-397.393 -657.924)" fill="#e5649a"/>
        <g id="Grupo_1006" data-name="Grupo 1006" transform="translate(29.119 68.586)">
          <path id="Caminho_909" data-name="Caminho 909" d="M371.5,726.4h48.1a1.122,1.122,0,1,0,0-2.243H371.5a1.122,1.122,0,1,0,0,2.243Z" transform="translate(-370.35 -724.16)" fill="#db4a87"/>
        </g>
        <path id="Caminho_910" data-name="Caminho 910" d="M414.766,931.37c10.28,0,18.616,3.307,18.616,7.385H396.15C396.15,934.674,404.484,931.37,414.766,931.37Z" transform="translate(-360.849 -813.133)" fill="#db4a87"/>
      </g>
      <g id="Grupo_1011" data-name="Grupo 1011" transform="translate(26.217 5.089)">
        <path id="Caminho_911" data-name="Caminho 911" d="M534.49,631.92s30.523-4.543,39.242-1.454l21.983,75.4s-29.25-22.891-40.7-60.681Z" transform="translate(-432.634 -505.66)" fill="#7860dc"/>
        <path id="Caminho_912" data-name="Caminho 912" d="M411.936,333.563a36.472,36.472,0,0,1-.424-5.705c-2.389-1.634-5.542,4.723-5.542,4.723l.12,1.138A12.013,12.013,0,0,0,411.936,333.563Z" transform="translate(-334.909 -276.176)" fill="#ed7e94"/>
        <path id="Caminho_913" data-name="Caminho 913" d="M408.021,301.11a2.887,2.887,0,0,0,2,4.361,10.556,10.556,0,0,0,4.018.074c2.921-1.342,5.53-3.014,4.883-4.524-.894-2.085-3.467-4.325-5.133-5.621C411.848,297.238,409.636,298.757,408.021,301.11Z" transform="translate(-336.141 -251.7)" fill="#ff96a9"/>
        <path id="Caminho_914" data-name="Caminho 914" d="M394.621,302.008a10.559,10.559,0,0,1-4.018-.074,2.887,2.887,0,0,1-2-4.361c1.617-2.351,3.829-3.872,5.768-5.713-.875-.681-1.5-1.1-1.5-1.1-6.268-.273-11.082,5.451-10.809,8.358s5.722,5.451,5.722,5.451A60.392,60.392,0,0,0,394.621,302.008Z" transform="translate(-316.724 -248.164)" fill="#ed7e94"/>
        <path id="Caminho_915" data-name="Caminho 915" d="M379.25,264.683s-2.454,0-1.907-2.09,3.089-.182,3.089-.182,10.718-7.268,14.262-16.352c0,0-17.442,7.541-22.073,18.441a8.844,8.844,0,0,0,7.994,6.086Z" transform="translate(-309.551 -214.183)" fill="#322666"/>
        <path id="Caminho_916" data-name="Caminho 916" d="M403.82,376.169l12.333-.829s18.915,21.439,12.5,61.891c0,0-12.475,8.72-18.29,5.935S403.82,376.169,403.82,376.169Z" transform="translate(-333.275 -312.485)" fill="#f2f0ff"/>
        <path id="Caminho_917" data-name="Caminho 917" d="M406.48,352.668l.515,6.065,7.148,4.879.98-5.427c-1.431-1.881-2.406-3.161-2.8-5.674A11.984,11.984,0,0,1,406.48,352.668Z" transform="translate(-335.297 -295.125)" fill="#ff96a9"/>
        <path id="Caminho_918" data-name="Caminho 918" d="M410.018,399.113l-1.3,7.222-7.857-7.5,6.949,4.586Z" transform="translate(-331.024 -330.354)" fill="#e0ddf5"/>
        <path id="Caminho_919" data-name="Caminho 919" d="M439.08,387.3l7.327,5L446,383.3l-.774,6.276Z" transform="translate(-360.086 -318.537)" fill="#e0ddf5"/>
        <path id="Caminho_920" data-name="Caminho 920" d="M436.754,409.414l-.014-.024c1.79,19.3,3.069,33.343-2.25,44.073l9.767,6.915C444.873,443.179,441.264,426.015,436.754,409.414Z" transform="translate(-356.596 -338.376)" fill="#db4a87"/>
        <path id="Caminho_921" data-name="Caminho 921" d="M460.922,450.515s-9.98-29.025-16.972-41.015c4.51,16.6,8.118,33.765,7.5,50.962l.113.079Z" transform="translate(-363.789 -338.459)" fill="#e5649a"/>
        <path id="Caminho_922" data-name="Caminho 922" d="M574.237,144.081a4.656,4.656,0,0,1-6.177-1.816,10.945,10.945,0,0,1-.687-2.724c-.628,3.244.177,6.9,2.93,8.78,6.9,4.723,6.055-2.907,6.055-2.907a13.2,13.2,0,0,1,1.689,4.5c.369-.379.717-.776,1.047-1.189a39.625,39.625,0,0,0-2.676-7.006C575.691,142.444,575.145,143.534,574.237,144.081Z" transform="translate(-457.483 -133.187)" fill="#ed7e94"/>
        <path id="Caminho_923" data-name="Caminho 923" d="M578.924,114.956c-5.756-4.443-9.975-.474-10.924,4.423a11.09,11.09,0,0,0,.688,2.724,4.657,4.657,0,0,0,6.177,1.816c.908-.544,1.454-1.634,2.18-2.363a39.452,39.452,0,0,1,2.676,7.006,20.706,20.706,0,0,0,3.805-7.967A19.7,19.7,0,0,0,578.924,114.956Z" transform="translate(-458.114 -113.026)" fill="#ff96a9"/>
        <path id="Caminho_924" data-name="Caminho 924" d="M612.56,179.051c.2.882.386,1.843.551,2.863a14.985,14.985,0,0,0,1.232-1.076q-.32-1.5-.733-2.978A15.59,15.59,0,0,1,612.56,179.051Z" transform="translate(-491.997 -162.324)" fill="#e0ddf5"/>
        <path id="Caminho_925" data-name="Caminho 925" d="M622.516,147.993c-.568-1.205-1.157-2.339-1.771-3.383a20.708,20.708,0,0,1-3.805,7.967q.413,1.477.733,2.978A21.883,21.883,0,0,0,622.516,147.993Z" transform="translate(-495.327 -137.042)" fill="#f2f0ff"/>
        <path id="Caminho_926" data-name="Caminho 926" d="M549.343,190.3a15.456,15.456,0,0,1-1.232,1.076c1.725,10.651,1.514,27.76,1.514,27.76C544.86,223.554,535.512,227.3,527.08,230c8.569-1.967,17.075-4.553,24.484-9.537C550.756,210.641,551.444,200.117,549.343,190.3Z" transform="translate(-426.999 -171.784)" fill="#7860dc"/>
        <path id="Caminho_927" data-name="Caminho 927" d="M499.608,158.73a21.909,21.909,0,0,1-4.843,7.562c2.1,9.817,1.414,20.341,2.221,30.168-7.409,4.984-15.915,7.57-24.484,9.537-9.139,2.931-17.2,4.634-17.2,4.634,14.149,28.948,8.137,79.333,8.137,79.333s2.3,6.055,8.842-16.229-2.665-51.719-2.665-51.719c17.2-3.391,36.82-20.955,36.82-20.955C508.723,191.354,505.469,171.181,499.608,158.73Z" transform="translate(-372.419 -147.778)" fill="#8b77e8"/>
        <path id="Caminho_928" data-name="Caminho 928" d="M398.059,646.022c4.414-5.231,5.3-12.228,5.164-18.872a152.272,152.272,0,0,0-14.794,4.157s-15.443,14.9.908,19.831,34.7-8.931,34.7-8.931c-13.989,17.8-12.355,61.953-12.355,61.953.208-.24.419-.489.628-.743,3.2-23.924,5.586-49.093,18.266-70.112C420.77,639.845,409.867,644.932,398.059,646.022Z" transform="translate(-316.551 -503.956)" fill="#7860dc"/>
        <path id="Caminho_929" data-name="Caminho 929" d="M454.734,614.341c.132,6.645-.75,13.641-5.164,18.872,11.808-1.09,22.711-6.177,32.521-12.716-12.681,21.019-15.065,46.189-18.266,70.112,16.483-19.852,38.988-78.832,38.988-78.832C486.344,608.459,467.472,611.379,454.734,614.341Z" transform="translate(-368.062 -491.148)" fill="#8b77e8"/>
        <path id="Caminho_930" data-name="Caminho 930" d="M126.2,154.409a22.639,22.639,0,0,1-.465-5.272s1.816,3.271,6.542.908c4.268-2.133,1.565-17.756-7.567-15a6.92,6.92,0,0,0-2.425,2.825,30.728,30.728,0,0,0-2.121,15.575A14.971,14.971,0,0,0,126.2,154.409Z" transform="translate(-117.443 -129.523)" fill="#ff96a9"/>
        <path id="Caminho_931" data-name="Caminho 931" d="M114.252,138.905a6.9,6.9,0,0,1,2.425-2.825,11.822,11.822,0,0,0-3.151,1.553c-3.5,2.351-4.431,8.2-4.026,15.24a9.192,9.192,0,0,0,2.631,1.608A30.732,30.732,0,0,1,114.252,138.905Z" transform="translate(-109.412 -130.556)" fill="#ed7e94"/>
        <path id="Caminho_932" data-name="Caminho 932" d="M127.709,217.565c-.367-1.265-.678-2.514-.913-3.724a15.013,15.013,0,0,1-6.036-.961c.115,1.248.28,2.5.484,3.752A15.858,15.858,0,0,0,127.709,217.565Z" transform="translate(-118.041 -188.953)" fill="#f2f0ff"/>
        <path id="Caminho_933" data-name="Caminho 933" d="M109.78,206.17c.074,1.28.192,2.6.347,3.939a12.948,12.948,0,0,0,2.768,1.419c-.2-1.251-.367-2.5-.484-3.752A9.13,9.13,0,0,1,109.78,206.17Z" transform="translate(-109.692 -183.851)" fill="#e0ddf5"/>
        <path id="Caminho_934" data-name="Caminho 934" d="M130.032,260.255c15.079,7.994,32.157,11.991,49.055,13.627,2,5.451,5.451,10.356,7.085,15.987,2.724,9.266,4.723,18.532,3.633,27.978a65,65,0,0,1-10.538,27.434,49.629,49.629,0,0,0,14.068-1.258,22.577,22.577,0,0,0,4.826-3.647c8.54-8.54,4.855-49.321-8.056-75.839,0,0-25.919.994-50.447-12.273,0,0-7.306-12.036-10.433-22.8a15.862,15.862,0,0,1-6.465-.932c.846,5.238,2.348,10.486,3.635,15.556C127.852,249.537,128.58,254.986,130.032,260.255Z" transform="translate(-119.562 -200.853)" fill="#8b77e8"/>
        <path id="Caminho_935" data-name="Caminho 935" d="M170.509,340.78a65,65,0,0,0,10.538-27.434c1.09-9.448-.908-18.714-3.633-27.978-1.634-5.631-5.087-10.538-7.085-15.987-16.9-1.634-33.973-5.631-49.055-13.627-1.454-5.269-2.181-10.718-3.633-16.169-1.287-5.07-2.789-10.318-3.635-15.556a12.948,12.948,0,0,1-2.768-1.419c1.823,15.827,8.765,35.142,8.765,35.142s32.7,16.713,47.782,15.805c0,0,14.171,25.253,11.626,40.15s-12.355,29.8-12.355,29.8,9.427.621,17.521-3.982A49.651,49.651,0,0,1,170.509,340.78Z" transform="translate(-110.802 -196.352)" fill="#7860dc"/>
        <path id="Caminho_936" data-name="Caminho 936" d="M486.2,930.34l-6.3,7.632h32.157Z" transform="translate(-391.124 -734.497)" fill="#322666"/>
        <path id="Caminho_937" data-name="Caminho 937" d="M756.413,933.31l-5.073,6.92h33.609Z" transform="translate(-597.523 -736.755)" fill="#322666"/>
        <path id="Caminho_938" data-name="Caminho 938" d="M428.34,311.439s3.148-.268,3.877-2.569c0,0,1.332,2.6,0,3.391S428.34,311.439,428.34,311.439Z" transform="translate(-351.919 -261.942)" fill="#f2f0ff"/>
        <path id="Caminho_939" data-name="Caminho 939" d="M399.525,425.47c-1.275-15.022-5.5-32.8-12.256-46.67,0,0-.985.038-2.748,0l-.642,11.161,4.026.364-5.854,5.542a74.048,74.048,0,0,1,17.475,29.6Z" transform="translate(-316.721 -315.116)" fill="#7860dc"/>
        <path id="Caminho_940" data-name="Caminho 940" d="M468.455,383.921l-6.724-1.454,2.454-2.272-5.954-7.665c-1.843.439-2.94.671-2.94.671,6.563,13.428,8.789,31.471,9.288,46.958h0C468.788,409.616,468.455,383.921,468.455,383.921Z" transform="translate(-372.411 -310.348)" fill="#7860dc"/>
        <g id="Grupo_1008" data-name="Grupo 1008" transform="translate(66.61 121.626)">
          <path id="Caminho_941" data-name="Caminho 941" d="M388.122,626.243a.728.728,0,0,1-.268-1.4l10.56-4.179a.727.727,0,0,1,.537,1.351l-10.56,4.179A.713.713,0,0,1,388.122,626.243Z" transform="translate(-387.395 -620.609)" fill="#7860dc"/>
        </g>
        <circle id="Elipse_62" data-name="Elipse 62" cx="1.203" cy="1.203" r="1.203" transform="translate(79.239 111.181)" fill="#7860dc"/>
        <g id="Grupo_1009" data-name="Grupo 1009" transform="translate(90.775 73.756)">
          <path id="Caminho_942" data-name="Caminho 942" d="M491.058,421.923a.165.165,0,0,1-.048-.007l-2.633-.726a.181.181,0,1,1,.1-.35l2.633.726a.182.182,0,0,1-.048.357Z" transform="translate(-488.243 -420.833)" fill="#8b77e8"/>
        </g>
        <g id="Grupo_1010" data-name="Grupo 1010" transform="translate(92.681 111.545)">
          <path id="Caminho_943" data-name="Caminho 943" d="M498.561,579.559a.2.2,0,0,1-.053-.007l-2.18-.659a.182.182,0,1,1,.105-.347l2.18.659a.181.181,0,0,1,.122.225A.186.186,0,0,1,498.561,579.559Z" transform="translate(-496.198 -578.538)" fill="#7860dc"/>
        </g>
        <path id="Caminho_944" data-name="Caminho 944" d="M437.544,399.98l-.484,2.756,2.6,1.756.666-2.847Z" transform="translate(-358.55 -331.221)" fill="#db4a87"/>
      </g>
      <g id="Grupo_1012" data-name="Grupo 1012" transform="translate(130.398 81.071)">
        <path id="Caminho_945" data-name="Caminho 945" d="M544.19,578.008h70.654V574.92a.7.7,0,0,0-.7-.7H544.89a.7.7,0,0,0-.7.7Z" transform="translate(-544.19 -539.691)" fill="#bcbcbc"/>
        <rect id="Ret창ngulo_1073" data-name="Ret창ngulo 1073" width="70.654" height="1.495" transform="translate(0 36.82)" fill="#747474"/>
        <path id="Caminho_946" data-name="Caminho 946" d="M677.061,464.649l17.6-34.529H645.431l-17,34.529Z" transform="translate(-608.245 -430.12)" fill="#bcbcbc"/>
        <path id="Caminho_947" data-name="Caminho 947" d="M645.431,430.12h.812L629.76,463.6h47.835l-.534,1.047H628.43Z" transform="translate(-608.245 -430.12)" fill="#747474"/>
        <ellipse id="Elipse_63" data-name="Elipse 63" cx="5.401" cy="4.344" rx="5.401" ry="4.344" transform="matrix(0.46, -0.888, 0.888, 0.46, 46.249, 21.795)" fill="#747474"/>
      </g>
      <g id="Grupo_1014" data-name="Grupo 1014" transform="translate(15.8 119.079)">
        <g id="Grupo_1013" data-name="Grupo 1013">
          <path id="Caminho_948" data-name="Caminho 948" d="M312.893,591.333H67.84c-1.05,0-1.9-.58-1.9-1.3s.851-1.3,1.9-1.3H312.893c1.05,0,1.9.58,1.9,1.3S313.942,591.333,312.893,591.333Z" transform="translate(-65.94 -588.74)" fill="#ffd4cd"/>
        </g>
        <path id="Caminho_949" data-name="Caminho 949" d="M158.613,599.56,125.62,686.452h7.258L170.05,599.56Z" transform="translate(-111.32 -596.967)" fill="#ffd4cd"/>
        <path id="Caminho_950" data-name="Caminho 950" d="M182.072,599.56,144.9,686.452h2.638L184.71,599.56Z" transform="translate(-125.98 -596.967)" fill="#edc0b9"/>
        <path id="Caminho_951" data-name="Caminho 951" d="M887.549,599.56l32.993,86.893h-7.258L876.11,599.56Z" transform="translate(-681.979 -596.967)" fill="#ffd4cd"/>
        <path id="Caminho_952" data-name="Caminho 952" d="M876.11,599.56l37.174,86.893h2.473L878.585,599.56Z" transform="translate(-681.979 -596.967)" fill="#edc0b9"/>
        <path id="Caminho_953" data-name="Caminho 953" d="M312.893,592.1H67.84a2.159,2.159,0,0,1-1.637-.647,1,1,0,0,0-.264.647c0,.716.851,1.3,1.9,1.3H312.893c1.05,0,1.9-.58,1.9-1.3a.994.994,0,0,0-.264-.647A2.168,2.168,0,0,1,312.893,592.1Z" transform="translate(-65.94 -590.801)" fill="#edc0b9"/>
      </g>
      <g id="Grupo_1015" data-name="Grupo 1015" transform="translate(0 208.516)">
        <path id="Caminho_954" data-name="Caminho 954" d="M285.354,962.709H.271c-.149,0-.271-.16-.271-.359a.325.325,0,0,1,.271-.359H285.354a.325.325,0,0,1,.271.359C285.625,962.548,285.5,962.709,285.354,962.709Z" transform="translate(0 -961.99)" fill="#717171"/>
      </g>
      <g id="Grupo_1017" data-name="Grupo 1017" transform="translate(70.996 -28.925)">
        <circle id="Elipse_64" data-name="Elipse 64" cx="20.538" cy="20.538" r="20.538" transform="matrix(0.898, -0.44, 0.44, 0.898, 0, 18.073)" fill="#fe9736"/>
        <circle id="Elipse_65" data-name="Elipse 65" cx="18.582" cy="18.582" r="18.582" transform="matrix(1, -0.027, 0.027, 1, 8.396, 9.407)" fill="#ffcc46"/>
        <g id="Grupo_1016" data-name="Grupo 1016" transform="translate(18.011 18.735)">
          <path id="Caminho_955" data-name="Caminho 955" d="M389.5,54.819l-7.56.012V54.22a2.1,2.1,0,0,0-.264-1.277,1.506,1.506,0,0,0-1.124-.3,1.718,1.718,0,0,0-1.038.261.918.918,0,0,0-.345.781,1.233,1.233,0,0,0,.714,1.212,37.407,37.407,0,0,0,4.083,1.344,41.23,41.23,0,0,1,3.932,1.294,4.848,4.848,0,0,1,1.771,1.275,3.017,3.017,0,0,1,.724,2.056,3.434,3.434,0,0,1-1.941,3.093,13.9,13.9,0,0,1-5.837,1.395l0,1.385-3.482,0,0-1.433a14.957,14.957,0,0,1-5.3-1.126,3.492,3.492,0,0,1-2.269-3.448v-.721L379.13,60l0,.9a4.289,4.289,0,0,0,.237,1.847q.234.359,1.133.359a2.063,2.063,0,0,0,1.141-.252.837.837,0,0,0,.374-.743,3.289,3.289,0,0,0-.359-1.773,5.156,5.156,0,0,0-2.435-1.16q-3.465-1.053-4.708-1.548a6.347,6.347,0,0,1-2.154-1.4,2.808,2.808,0,0,1-.911-2.042,2.868,2.868,0,0,1,1.915-2.593,15.71,15.71,0,0,1,5.753-1.167l0-1.177,3.482,0,0,1.177a13.372,13.372,0,0,1,5.243,1.136,2.826,2.826,0,0,1,1.744,2.554C389.577,54.278,389.551,54.51,389.5,54.819Z" transform="translate(-371.45 -49.26)" fill="#fe9736"/>
        </g>
      </g>
    </g>
  </g>
</svg>
