<svg id="Group_966" data-name="Group 966" xmlns="http://www.w3.org/2000/svg" width="30" height="30" viewBox="0 0 30 30">
  <path id="Path_715" data-name="Path 715" d="M189,58a15,15,0,1,0,15,15A15.02,15.02,0,0,0,189,58Zm13.041,16.425a.056.056,0,0,1-.009.038q-.084.689-.225,1.35h-4.528a26.443,26.443,0,0,0,0-5.625h4.528q.141.661.225,1.35a.056.056,0,0,0,.009.037,12.077,12.077,0,0,1,0,2.85Zm-8.034,10.7a17.206,17.206,0,0,0,3.019-7.434h4.219A13.151,13.151,0,0,1,194.006,85.122Zm7.238-16.809h-4.219a17.206,17.206,0,0,0-3.019-7.434A13.151,13.151,0,0,1,201.244,68.313ZM195.4,70.188a24.9,24.9,0,0,1,0,5.625h-5.466V70.188Zm-5.466-1.875V60.034c2.334.7,4.313,3.975,5.166,8.278Zm0,9.375H195.1c-.853,4.313-2.831,7.575-5.166,8.278Zm-13.181,0h4.219a17.207,17.207,0,0,0,3.019,7.434A13.151,13.151,0,0,1,176.756,77.688Zm7.238-16.809a17.207,17.207,0,0,0-3.019,7.434h-4.219A13.151,13.151,0,0,1,183.994,60.878Zm-1.4,14.934a24.9,24.9,0,0,1,0-5.625h5.466v5.625Zm5.466,1.875v8.278c-2.334-.7-4.312-3.975-5.166-8.278Zm0-9.375H182.9c.853-4.312,2.831-7.575,5.166-8.278Zm-12.1,3.263a.071.071,0,0,1,.009-.037q.084-.689.225-1.35h4.528a26.443,26.443,0,0,0,0,5.625h-4.528c-.094-.441-.169-.9-.225-1.35a.071.071,0,0,0-.009-.038,12.075,12.075,0,0,1,0-2.85Z" transform="translate(-174 -58)" fill="#373a3c"/>
</svg>
