<svg xmlns="http://www.w3.org/2000/svg" width="21.333" height="28" viewBox="0 0 21.333 28">
  <path id="Path_879" data-name="Path 879" d="M22.667,10.333H21.333V7.667A6.667,6.667,0,1,0,8,7.667v2.667H6.667A2.675,2.675,0,0,0,4,13V26.333A2.675,2.675,0,0,0,6.667,29h16a2.675,2.675,0,0,0,2.667-2.667V13A2.675,2.675,0,0,0,22.667,10.333Zm-8,12a2.667,2.667,0,1,1,2.667-2.667A2.675,2.675,0,0,1,14.667,22.333Zm4.133-12H10.533V7.667a4.133,4.133,0,1,1,8.267,0Z" transform="translate(-4 -1)" fill="#fff" opacity="0.3"/>
</svg>
