<svg xmlns="http://www.w3.org/2000/svg" width="380.429" height="120" viewBox="0 0 380.429 120">
  <g id="Group_850" data-name="Group 850" transform="translate(-700 -183)">
    <path id="Path_872" data-name="Path 872" d="M84,41H78.286V29.571a28.571,28.571,0,0,0-57.143,0V41H15.429A11.462,11.462,0,0,0,4,52.429v57.143A11.462,11.462,0,0,0,15.429,121H84a11.462,11.462,0,0,0,11.429-11.429V52.429A11.462,11.462,0,0,0,84,41ZM49.714,92.429A11.429,11.429,0,1,1,61.143,81,11.462,11.462,0,0,1,49.714,92.429ZM67.429,41H32V29.571a17.714,17.714,0,1,1,35.429,0Z" transform="translate(840 182)" fill="#fff"/>
    <path id="Path_873" data-name="Path 873" d="M84,41H78.286V29.571a28.571,28.571,0,0,0-57.143,0V41H15.429A11.462,11.462,0,0,0,4,52.429v57.143A11.462,11.462,0,0,0,15.429,121H84a11.462,11.462,0,0,0,11.429-11.429V52.429A11.462,11.462,0,0,0,84,41ZM49.714,92.429A11.429,11.429,0,1,1,61.143,81,11.462,11.462,0,0,1,49.714,92.429ZM67.429,41H32V29.571a17.714,17.714,0,1,1,35.429,0Z" transform="translate(696 182)" fill="#fff" opacity="0.3"/>
    <path id="Path_874" data-name="Path 874" d="M84,41H78.286V29.571a28.571,28.571,0,0,0-57.143,0V41H15.429A11.462,11.462,0,0,0,4,52.429v57.143A11.462,11.462,0,0,0,15.429,121H84a11.462,11.462,0,0,0,11.429-11.429V52.429A11.462,11.462,0,0,0,84,41ZM49.714,92.429A11.429,11.429,0,1,1,61.143,81,11.462,11.462,0,0,1,49.714,92.429ZM67.429,41H32V29.571a17.714,17.714,0,1,1,35.429,0Z" transform="translate(985 182)" fill="#fff" opacity="0.3"/>
  </g>
</svg>
