<svg xmlns="http://www.w3.org/2000/svg" width="161.874" height="30" viewBox="0 0 161.874 30">
  <g id="Grupo_826" data-name="Grupo 826" transform="translate(-26 -134)">
    <path id="Caminho_842" data-name="Caminho 842" fill="#FFFFFF" d="M47.823,160.823s-7.868.839-15.111-6.814L26,168.1a20.542,20.542,0,0,0,11.51,4.082C44.17,172.3,47.884,166.808,47.823,160.823Zm-17.668,6.861a.264.264,0,0,1-.147-.342l4-8.589a.28.28,0,0,1,.5.235l-4,8.588A.265.265,0,0,1,30.155,167.684Zm2.272,1.024a.266.266,0,0,1-.147-.343l4-8.588a.28.28,0,0,1,.5.235l-4,8.588A.265.265,0,0,1,32.428,168.708Zm2.823.879a.28.28,0,0,1-.5-.235l4-8.588a.28.28,0,0,1,.5.235Zm6.456-7.447-3.5,7.874a.284.284,0,0,1-.508-.225l3.5-7.875a.284.284,0,0,1,.508.226Z" transform="translate(0 -8.182)"/>
    <path id="Caminho_843" data-name="Caminho 843" fill="#FFFFFF" d="M53,140.753s14.323,13.1,1.146,23.247c0,0,14.445-6.14,2.536-22.715l9.515-4.819s9.229,13.277-4.931,23.065c0,0,16.984-7.483,5.668-25.531Z" transform="translate(-11.041)"/>
    <path id="Caminho_844" data-name="Caminho 844" fill="#FFFFFF" d="M67.52,147.881a3.1,3.1,0,0,0,2.656,1.761l1.228,4.3c-1.515-.076-2.12-2.119-2.12-2.119l-.767.177s.852,3.224,3.161,2.9l.433,1.518.354-.1-.426-1.493c2.515-.725,1.617-5.006-.2-5.8a8.147,8.147,0,0,0-1.59-.462l-1.116-3.908a2.1,2.1,0,0,1,1.744,1.582l.767-.061s-.706-2.333-2.517-2.471a1.806,1.806,0,0,0-.265,0l-.309-1.081-.353.1.3,1.043C67.182,144.163,66.783,146.192,67.52,147.881Zm3.959,2.1c1.182.537,2.21,3.576.368,3.929l-.067.01-1.2-4.2A4.266,4.266,0,0,1,71.48,149.983ZM68.766,144.7l1.076,3.772a2.056,2.056,0,0,1-1.785-2.153C67.963,145.335,68.3,144.837,68.766,144.7Z" transform="translate(-16.828 -3.527)"/>
    <path id="Caminho_845" data-name="Caminho 845" fill="#FFFFFF" d="M99.253,153.156a2.547,2.547,0,0,1,2.243-1.074,2.906,2.906,0,0,1,2.053.634,3.044,3.044,0,0,1,.784,2.043h3a5.536,5.536,0,0,0-1.779-3.787,6.605,6.605,0,0,0-7.248-.495,5.545,5.545,0,0,0-2.113,2.453,8.715,8.715,0,0,0-.739,3.7v.89a7.722,7.722,0,0,0,1.6,5.17,5.474,5.474,0,0,0,4.4,1.883,6.092,6.092,0,0,0,4.121-1.348,5.15,5.15,0,0,0,1.733-3.7h-3a2.862,2.862,0,0,1-.784,1.963,2.958,2.958,0,0,1-2.073.635,2.5,2.5,0,0,1-2.253-1.089,6.441,6.441,0,0,1-.715-3.447v-1.1A6.024,6.024,0,0,1,99.253,153.156Z" transform="translate(-28.399 -6.389)"/>
    <path id="Caminho_846" data-name="Caminho 846" fill="#FFFFFF" d="M121.328,157.434l-.08-1.289h-2.727v10.81h2.887v-7.073a2.115,2.115,0,0,1,2.148-1.108,7.851,7.851,0,0,1,1.039.079l.04-2.777a3.033,3.033,0,0,0-.9-.13A2.675,2.675,0,0,0,121.328,157.434Z" transform="translate(-37.831 -8.973)"/>
    <path id="Caminho_847" data-name="Caminho 847" fill="#FFFFFF" d="M135.211,155.945a5,5,0,0,0-2.632.695,4.614,4.614,0,0,0-1.783,1.978,6.527,6.527,0,0,0-.63,2.912v.279a5.182,5.182,0,0,0,1.494,3.886,5.3,5.3,0,0,0,3.871,1.459,5.768,5.768,0,0,0,2.457-.514,4.33,4.33,0,0,0,1.759-1.434l-1.419-1.588a3.117,3.117,0,0,1-2.607,1.209,2.552,2.552,0,0,1-1.783-.64,2.684,2.684,0,0,1-.844-1.7h6.883V161.31a5.685,5.685,0,0,0-1.274-3.966A4.486,4.486,0,0,0,135.211,155.945Zm1.928,4.576h-4.016a3.013,3.013,0,0,1,.685-1.666,1.8,1.8,0,0,1,1.393-.582,1.863,1.863,0,0,1,1.419.526,2.154,2.154,0,0,1,.52,1.491Z" transform="translate(-42.593 -8.973)"/>
    <path id="Caminho_848" data-name="Caminho 848" fill="#FFFFFF" d="M140.909,148.61h-3.147l-1.968,3.1h2.348Z" transform="translate(-44.894 -5.974)"/>
    <path id="Caminho_849" data-name="Caminho 849" fill="#FFFFFF" d="M155.617,154.124a3.312,3.312,0,0,0-2.608-1.179,3.68,3.68,0,0,0-3.1,1.5,6.516,6.516,0,0,0-1.134,4.027,6.721,6.721,0,0,0,1.154,4.181,3.667,3.667,0,0,0,3.062,1.5,3.4,3.4,0,0,0,2.777-1.348l.14,1.149h2.607V148.61h-2.9Zm0,6.572a1.933,1.933,0,0,1-1.889,1.131,1.725,1.725,0,0,1-1.538-.81,4.269,4.269,0,0,1-.53-2.332q0-3.391,2.088-3.392a1.905,1.905,0,0,1,1.868,1.131Z" transform="translate(-50.201 -5.974)"/>
    <path id="Caminho_850" data-name="Caminho 850" fill="#FFFFFF" d="M170.622,149.033a1.633,1.633,0,0,0-1.184.42,1.532,1.532,0,0,0,.01,2.148,1.852,1.852,0,0,0,2.348,0,1.527,1.527,0,0,0,0-2.148A1.636,1.636,0,0,0,170.622,149.033Z" transform="translate(-58.474 -6.147)"/>
    <rect id="Ret창ngulo_1057" data-name="Ret창ngulo 1057" fill="#FFFFFF" width="2.897" height="10.81" transform="translate(110.7 147.172)"/>
    <path id="Caminho_851" data-name="Caminho 851" fill="#FFFFFF" d="M181.2,162.817a1.288,1.288,0,0,1-.23-.859v-5.4h1.848v-2.118h-1.848v-2.657h-2.887v2.657h-1.578v2.118h1.578v5.825q.06,3.067,3.1,3.067a5.942,5.942,0,0,0,1.748-.26v-2.188a4.6,4.6,0,0,1-.849.07A1.154,1.154,0,0,1,181.2,162.817Z" transform="translate(-61.542 -7.273)"/>
    <path id="Caminho_852" data-name="Caminho 852" fill="#FFFFFF" d="M197.319,157.284a4.921,4.921,0,0,0-3.571-1.339,5.2,5.2,0,0,0-2.7.689,4.541,4.541,0,0,0-1.784,1.948,6.417,6.417,0,0,0-.619,2.867v.13a5.749,5.749,0,0,0,1.393,4.076,5.383,5.383,0,0,0,7.458,0,5.651,5.651,0,0,0,1.389-3.991l-.02-.739A5.376,5.376,0,0,0,197.319,157.284Zm-1.913,6.737a2.081,2.081,0,0,1-3.3-.009,4.043,4.043,0,0,1-.579-2.357,4.5,4.5,0,0,1,.579-2.556,1.885,1.885,0,0,1,1.639-.825,1.915,1.915,0,0,1,1.658.83,4,4,0,0,1,.59,2.341A4.413,4.413,0,0,1,195.406,164.021Z" transform="translate(-66.504 -8.973)"/>
    <path id="Caminho_853" data-name="Caminho 853" fill="#FFFFFF" d="M217.915,164.508h3v-5.944h5.754v-2.418h-5.754V152.39h6.474v-2.427h-9.471Z" transform="translate(-78.473 -6.527)"/>
    <path id="Caminho_854" data-name="Caminho 854" fill="#FFFFFF" d="M244.118,157.284a4.923,4.923,0,0,0-3.571-1.339,5.2,5.2,0,0,0-2.7.689,4.536,4.536,0,0,0-1.783,1.948,6.409,6.409,0,0,0-.619,2.867v.13a5.747,5.747,0,0,0,1.394,4.076,5.383,5.383,0,0,0,7.458,0,5.654,5.654,0,0,0,1.389-3.991l-.02-.739A5.378,5.378,0,0,0,244.118,157.284Zm-1.913,6.737a2.081,2.081,0,0,1-3.3-.009,4.039,4.039,0,0,1-.579-2.357,4.492,4.492,0,0,1,.579-2.556,1.884,1.884,0,0,1,1.639-.825,1.916,1.916,0,0,1,1.658.83,4,4,0,0,1,.589,2.341A4.418,4.418,0,0,1,242.2,164.021Z" transform="translate(-85.639 -8.973)"/>
    <rect id="Ret창ngulo_1058" data-name="Ret창ngulo 1058" fill="#FFFFFF" width="2.897" height="15.345" transform="translate(161.97 142.636)"/>
    <path id="Caminho_855" data-name="Caminho 855" fill="#FFFFFF" d="M270.607,152.946a3.6,3.6,0,0,0-2.888,1.379V148.61h-2.887v15.345h2.887v-7.683a1.966,1.966,0,0,1,1.838-.979,1.715,1.715,0,0,1,1.329.445,2.011,2.011,0,0,1,.4,1.374v6.843h2.887v-6.923Q274.123,152.946,270.607,152.946Z" transform="translate(-97.657 -5.974)"/>
    <path id="Caminho_856" data-name="Caminho 856" fill="#FFFFFF" d="M292.773,164.457v-4.685a3.512,3.512,0,0,0-1.174-2.822,4.718,4.718,0,0,0-3.172-1,5.966,5.966,0,0,0-2.377.455,3.832,3.832,0,0,0-1.638,1.254,2.9,2.9,0,0,0-.58,1.738h2.888a1.187,1.187,0,0,1,.414-.959,1.72,1.72,0,0,1,1.144-.349,1.512,1.512,0,0,1,1.214.449,1.783,1.783,0,0,1,.384,1.2v.619h-1.328a6.29,6.29,0,0,0-3.681.93,3.055,3.055,0,0,0-1.274,2.638,2.956,2.956,0,0,0,1.044,2.318,3.836,3.836,0,0,0,2.632.919A3.494,3.494,0,0,0,290,165.986a3.183,3.183,0,0,0,.29.969H293.2v-.17A5.168,5.168,0,0,1,292.773,164.457Zm-2.9-.56a1.867,1.867,0,0,1-.8.764,2.479,2.479,0,0,1-1.179.285,1.473,1.473,0,0,1-1.039-.349,1.156,1.156,0,0,1-.379-.89l.01-.17q.139-1.5,2.308-1.5h1.079Z" transform="translate(-105.328 -8.973)"/>
  </g>
</svg>
