<svg id="Group_965" data-name="Group 965" xmlns="http://www.w3.org/2000/svg" width="29.991" height="30" viewBox="0 0 29.991 30">
  <g id="Group_526" data-name="Group 526">
    <g id="Group_525" data-name="Group 525">
      <path id="Path_729" data-name="Path 729" d="M15,144.116H3.168a1.3,1.3,0,0,1-1.293-1.293v-2.455H15.614a.937.937,0,0,0,0-1.874H1.874V122.56h16.87v.937a.937.937,0,1,0,1.874,0v-4.33A3.17,3.17,0,0,0,17.451,116H3.168A3.164,3.164,0,0,0,0,119.168v23.664A3.17,3.17,0,0,0,3.168,146H15a.942.942,0,0,0,0-1.884ZM3.168,117.874H17.46a1.3,1.3,0,0,1,1.293,1.293v1.518H1.874v-1.518A1.3,1.3,0,0,1,3.168,117.874Z" transform="translate(0 -116)" fill="#40b258"/>
    </g>
  </g>
  <g id="Group_528" data-name="Group 528" transform="translate(19.681 18.744)">
    <g id="Group_527" data-name="Group 527">
      <path id="Path_730" data-name="Path 730" d="M23.812,136a2.807,2.807,0,0,0-.937,5.455v1.106a.937.937,0,0,0,1.874,0v-1.106A2.807,2.807,0,0,0,23.812,136Zm0,3.749a.937.937,0,1,1,.937-.937A.94.94,0,0,1,23.812,139.749Z" transform="translate(-21 -136)" fill="#40b258"/>
    </g>
  </g>
  <g id="Group_530" data-name="Group 530" transform="translate(14.995 9.372)">
    <g id="Group_529" data-name="Group 529">
      <path id="Path_731" data-name="Path 731" d="M30.058,131.623H28.184v-.937a4.686,4.686,0,1,0-9.372,0v.937H16.937a.94.94,0,0,0-.937.937v6.56a7.5,7.5,0,1,0,15,0v-6.56A.94.94,0,0,0,30.058,131.623Zm-9.372-.937a2.812,2.812,0,0,1,5.623,0v.937H20.686Zm8.435,8.435a5.623,5.623,0,1,1-11.246,0V133.5H29.121Z" transform="translate(-16 -126)" fill="#40b258"/>
    </g>
  </g>
</svg>
