<svg xmlns="http://www.w3.org/2000/svg" width="408" height="120" viewBox="0 0 408 120">
  <g id="ilustra-email-enviado-feedback" transform="translate(-686 -222)">
    <g id="baseline-send-24px" transform="translate(830 342) rotate(-90)">
      <path id="Path_832" data-name="Path 832" d="M2.056,117,119,60,2.056,3,2,47.333,85.571,60,2,72.667Z" fill="#fff"/>
      <path id="Path_833" data-name="Path 833" d="M0,0H120V120H0Z" fill="none"/>
    </g>
    <g id="baseline-send-24px-2" data-name="baseline-send-24px" transform="translate(686 342) rotate(-90)" opacity="0.3">
      <path id="Path_832-2" data-name="Path 832" d="M2.056,117,119,60,2.056,3,2,47.333,85.571,60,2,72.667Z" fill="#fff"/>
      <path id="Path_833-2" data-name="Path 833" d="M0,0H120V120H0Z" fill="none"/>
    </g>
    <g id="baseline-send-24px-3" data-name="baseline-send-24px" transform="translate(974 342) rotate(-90)" opacity="0.3">
      <path id="Path_832-3" data-name="Path 832" d="M2.056,117,119,60,2.056,3,2,47.333,85.571,60,2,72.667Z" fill="#fff"/>
      <path id="Path_833-3" data-name="Path 833" d="M0,0H120V120H0Z" fill="none"/>
    </g>
  </g>
</svg>
