<svg id="Group_961" data-name="Group 961" xmlns="http://www.w3.org/2000/svg" width="30.001" height="30" viewBox="0 0 30.001 30">
  <g id="Group_507" data-name="Group 507" transform="translate(0)">
    <g id="Group_500" data-name="Group 500" transform="translate(6.564)">
      <g id="Group_499" data-name="Group 499">
        <path id="Path_710" data-name="Path 710" d="M12.625,15c3.15,0,5.625-3.7,5.625-8.437C18.25.637,14.313,0,12.625,0S7,.637,7,6.562C7,11.3,9.475,15,12.625,15Zm0-13.125c2.484,0,3.75,1.575,3.75,4.687,0,3.553-1.716,6.562-3.75,6.562s-3.75-3.009-3.75-6.562C8.875,3.45,10.141,1.875,12.625,1.875Z" transform="translate(-7)" fill="#4caf50"/>
      </g>
    </g>
    <g id="Group_502" data-name="Group 502" transform="translate(19.689 18.75)">
      <g id="Group_501" data-name="Group 501">
        <path id="Path_712" data-name="Path 712" d="M22.875,25.456v1.106a.938.938,0,0,0,1.875,0V25.456a2.813,2.813,0,1,0-1.875,0Zm.938-3.581a.938.938,0,1,1-.938.938A.94.94,0,0,1,23.813,21.875Z" transform="translate(-21 -20)" fill="#4caf50"/>
      </g>
    </g>
    <g id="Group_504" data-name="Group 504" transform="translate(15.001 11.25)">
      <g id="Group_503" data-name="Group 503">
        <path id="Path_713" data-name="Path 713" d="M30.063,16.687H28.188a4.688,4.688,0,0,0-9.375,0H16.938a.94.94,0,0,0-.938.938V23.25a7.5,7.5,0,0,0,15,0V17.625A.94.94,0,0,0,30.063,16.687ZM23.5,13.875a2.821,2.821,0,0,1,2.813,2.812H20.688A2.821,2.821,0,0,1,23.5,13.875Zm5.625,9.375a5.625,5.625,0,0,1-11.25,0V18.562h11.25Z" transform="translate(-16 -12)" fill="#4caf50"/>
      </g>
    </g>
    <g id="Group_506" data-name="Group 506" transform="translate(0 15.933)">
      <g id="Group_505" data-name="Group 505">
        <path id="Path_714" data-name="Path 714" d="M14.062,29.187h-7.5v-3.75a.938.938,0,1,0-1.875,0v3.75h-2.8c-.084-2.822.206-6.919,1.369-8.147a.749.749,0,0,1,.581-.291h.328c1.453.009,2.963.028,4.209-2.381A.939.939,0,0,0,6.7,17.506c-.722,1.387-1.247,1.378-2.531,1.369H3.825a2.652,2.652,0,0,0-1.95.872C-.375,22.156,0,29.365.056,30.181a.936.936,0,0,0,.938.881H14.062a.938.938,0,1,0,0-1.875Z" transform="translate(0.001 -16.996)" fill="#4caf50"/>
      </g>
    </g>
  </g>
</svg>
